<svg xmlns="http://www.w3.org/2000/svg" width="64" height="64" viewBox="0 0 64 64" role="img" aria-label="Kanban Logo">
  <!-- Hintergrund mit weichem Verlauf -->
  <defs>
    <linearGradient id="g" x1="0" y1="0" x2="1" y2="1">
      <stop offset="0%" stop-color="#FF5AC4"></stop>
      <stop offset="40%" stop-color="#8A5CFF"></stop>
      <stop offset="75%" stop-color="#2FB7FF"></stop>
      <stop offset="100%" stop-color="#2EE6A6"></stop>
    </linearGradient>
    <!-- dezenter Schlagschatten für die Säulen -->
    <filter id="s" x="-20%" y="-20%" width="140%" height="140%">
      <feDropShadow dx="0" dy="1.2" stdDeviation="1.2" flood-opacity="0.28"></feDropShadow>
    </filter>
  </defs>

  <!-- runder Kachel-Hintergrund -->
  <rect x="4" y="4" width="56" height="56" rx="14" fill="url(#g)"></rect>

  <!-- Drei Kanban-Spalten (als gefüllte, gut sichtbare Formen) -->
  <g filter="url(#s)">
    <!-- Spalte 1 -->
    <rect x="12.5" y="14.5" width="11" height="35" rx="3" fill="#ffffff" opacity="0.92"></rect>
    <rect x="14.5" y="17.5" width="7" height="7" rx="2" fill="#FFC857"></rect>
    <rect x="14.5" y="27.5" width="7" height="7" rx="2" fill="#6EE7B7"></rect>
    <!-- Spalte 2 -->
    <rect x="26.5" y="14.5" width="11" height="35" rx="3" fill="#ffffff" opacity="0.92"></rect>
    <rect x="28.5" y="17.5" width="7" height="7" rx="2" fill="#60A5FA"></rect>
    <rect x="28.5" y="27.5" width="7" height="7" rx="2" fill="#F472B6"></rect>
    <!-- Spalte 3 -->
    <rect x="40.5" y="14.5" width="11" height="35" rx="3" fill="#ffffff" opacity="0.92"></rect>
    <rect x="42.5" y="17.5" width="7" height="7" rx="2" fill="#34D399"></rect>
    <rect x="42.5" y="27.5" width="7" height="7" rx="2" fill="#F59E0B"></rect>
  </g>
</svg>
